<?xml version="1.0" standalone="no"?>
<!DOCTYPE svg PUBLIC "-//W3C//DTD SVG 20010904//EN"
 "http://www.w3.org/TR/2001/REC-SVG-20010904/DTD/svg10.dtd">
<svg version="1.0" xmlns="http://www.w3.org/2000/svg"
 width="907.000000pt" height="907.000000pt" viewBox="0 0 907.000000 907.000000"
 preserveAspectRatio="xMidYMid meet">
<metadata>
Created by potrace 1.11, written by Peter Selinger 2001-2013
</metadata>
<g transform="translate(0.000000,907.000000) scale(0.100000,-0.100000)"
fill="#000000" stroke="none">
<path d="M4448 9055 c-2 -2 -40 -6 -85 -9 -46 -4 -92 -9 -103 -12 -11 -2 -28
-6 -39 -8 -10 -2 -34 -7 -52 -10 -19 -3 -49 -10 -66 -15 -18 -5 -33 -7 -33 -3
0 3 -5 1 -12 -6 -7 -7 -22 -12 -34 -12 -13 0 -25 -4 -28 -9 -3 -4 -19 -11 -35
-14 -17 -4 -46 -13 -66 -21 -19 -8 -37 -16 -40 -16 -36 -8 -251 -137 -279
-168 -50 -55 -5 -123 84 -127 35 -2 105 30 144 67 11 10 31 21 43 24 13 4 23
10 23 16 0 5 5 6 10 3 6 -3 10 -1 10 4 0 6 5 11 11 11 15 0 83 32 90 43 3 5 8
8 10 6 3 -2 39 7 59 15 34 14 102 31 180 46 36 7 82 15 102 20 41 9 348 5 390
-4 16 -4 40 -8 55 -10 70 -9 218 -51 239 -68 7 -5 16 -8 20 -6 5 1 25 -6 44
-17 19 -11 37 -20 40 -21 3 -1 15 -5 28 -9 12 -4 22 -11 22 -16 0 -5 9 -9 19
-9 10 0 22 -7 25 -16 3 -8 10 -13 14 -10 5 3 20 -6 35 -20 15 -14 27 -21 27
-17 0 4 4 3 8 -2 46 -63 200 -22 187 50 -2 11 -4 25 -4 31 -2 23 -295 196
-353 208 -7 2 -20 6 -28 9 -46 18 -144 46 -148 42 -3 -3 -10 -1 -16 4 -14 11
-162 38 -251 46 -75 7 -243 13 -247 10z"/>
<path d="M4365 8719 c-22 -4 -58 -11 -80 -14 -22 -4 -67 -16 -100 -27 -33 -11
-65 -21 -72 -22 -22 -4 -183 -89 -183 -98 0 -4 -6 -8 -13 -8 -21 0 -57 -48
-57 -76 0 -29 43 -73 74 -76 56 -4 90 3 119 24 58 42 178 101 207 103 3 0 11
4 18 8 6 5 12 6 12 3 0 -2 15 0 33 5 110 33 326 29 447 -9 55 -17 172 -72 243
-116 34 -20 51 -23 107 -18 27 3 70 51 70 79 0 25 -61 93 -84 93 -6 1 -24 11
-40 24 -16 14 -35 22 -43 19 -7 -3 -13 0 -13 5 0 9 -36 27 -50 24 -3 -1 -15 6
-27 14 -13 8 -23 12 -23 8 0 -4 -6 -2 -12 4 -11 8 -29 14 -88 27 -3 1 -18 4
-35 8 -16 4 -41 10 -55 13 -39 9 -310 12 -355 3z"/>
<path d="M1615 8094 c-130 -28 -224 -89 -288 -188 l-32 -51 -3 -3593 -2 -3594
26 -51 c14 -28 42 -68 62 -88 38 -37 122 -94 122 -83 0 4 6 1 14 -5 32 -26
117 -43 256 -49 l145 -7 3 -100 c3 -140 23 -183 104 -225 165 -86 374 1 376
158 0 23 1 71 1 108 l1 65 63 -1 c34 -1 980 -1 2101 -1 1122 1 2041 0 2042 -2
1 -1 4 -52 7 -114 3 -86 8 -118 22 -139 55 -84 167 -124 280 -101 41 9 105 38
105 49 0 4 6 8 13 8 10 0 38 33 43 50 0 3 4 12 8 21 4 8 8 63 9 122 l2 105
135 1 c74 1 151 4 170 7 163 28 297 124 352 251 l26 62 0 3542 c0 2011 -3
3549 -8 3558 -5 9 -21 42 -35 73 -39 86 -152 174 -260 203 -16 5 -37 11 -45
13 -8 3 -1306 7 -2885 8 -2315 1 -2882 -1 -2930 -12z"/>
</g>
</svg>
